<svg width="48" height="49" viewBox="0 0 48 49" fill="none" xmlns="http://www.w3.org/2000/svg">
<circle cx="26" cy="26.5654" r="21.25" fill="#FFF1F0" stroke="#E9004B" stroke-width="1.5"/>
<circle cx="10" cy="10.5654" r="10" fill="#E9004B"/>
<path d="M7.34638 8.46102C7.37838 7.60502 7.65838 6.94502 8.18638 6.48102C8.71438 6.01702 9.43038 5.78502 10.3344 5.78502C10.9344 5.78502 11.4464 5.88902 11.8704 6.09702C12.3024 6.30502 12.6264 6.58902 12.8424 6.94902C13.0664 7.30902 13.1784 7.71302 13.1784 8.16102C13.1784 8.68902 13.0464 9.12102 12.7824 9.45702C12.5184 9.78502 12.2104 10.009 11.8584 10.129V10.177C12.3144 10.329 12.6744 10.581 12.9384 10.933C13.2024 11.285 13.3344 11.737 13.3344 12.289C13.3344 12.785 13.2184 13.225 12.9864 13.609C12.7624 13.985 12.4304 14.281 11.9904 14.497C11.5584 14.713 11.0424 14.821 10.4424 14.821C9.48238 14.821 8.71438 14.585 8.13838 14.113C7.57038 13.641 7.27038 12.929 7.23838 11.977H9.23038C9.23838 12.329 9.33838 12.609 9.53038 12.817C9.72238 13.017 10.0024 13.117 10.3704 13.117C10.6824 13.117 10.9224 13.029 11.0904 12.853C11.2664 12.669 11.3544 12.429 11.3544 12.133C11.3544 11.749 11.2304 11.473 10.9824 11.305C10.7424 11.129 10.3544 11.041 9.81837 11.041H9.43438V9.37302H9.81837C10.2264 9.37302 10.5544 9.30502 10.8024 9.16902C11.0584 9.02502 11.1864 8.77302 11.1864 8.41302C11.1864 8.12502 11.1064 7.90102 10.9464 7.74102C10.7864 7.58102 10.5664 7.50102 10.2864 7.50102C9.98238 7.50102 9.75438 7.59302 9.60238 7.77702C9.45838 7.96102 9.37438 8.18902 9.35038 8.46102H7.34638Z" fill="white"/>
<path fill-rule="evenodd" clip-rule="evenodd" d="M23.2955 20.5654C23.5306 19.2854 24.6521 18.3154 26.0002 18.3154C27.3482 18.3154 28.4697 19.2854 28.7048 20.5654H23.2955ZM21.7666 20.6894C21.9569 18.5183 23.7797 16.8154 26.0002 16.8154C28.2207 16.8154 30.0434 18.5183 30.2338 20.6894C31.878 21.1091 33.1241 22.5489 33.2346 24.3159L33.7346 32.3159C33.8785 34.6187 32.0496 36.5654 29.7424 36.5654H22.258C19.9507 36.5654 18.1218 34.6187 18.2658 32.3159L18.7658 24.3159C18.8762 22.5489 20.1223 21.1091 21.7666 20.6894ZM31.7375 24.4095C31.6551 23.0919 30.5625 22.0654 29.2424 22.0654H22.758C21.4378 22.0654 20.3452 23.0919 20.2628 24.4095L19.7628 32.4095C19.6729 33.8487 20.8159 35.0654 22.258 35.0654H29.7424C31.1844 35.0654 32.3274 33.8487 32.2375 32.4095L31.7375 24.4095ZM22.5002 23.3154C22.9144 23.3154 23.2502 23.6512 23.2502 24.0654C23.2502 25.5842 24.4814 26.8154 26.0002 26.8154C27.5189 26.8154 28.7502 25.5842 28.7502 24.0654C28.7502 23.6512 29.086 23.3154 29.5002 23.3154C29.9144 23.3154 30.2502 23.6512 30.2502 24.0654C30.2502 26.4126 28.3474 28.3154 26.0002 28.3154C23.653 28.3154 21.7502 26.4126 21.7502 24.0654C21.7502 23.6512 22.086 23.3154 22.5002 23.3154Z" fill="#E9004B"/>
</svg>
