<svg width="48" height="49" viewBox="0 0 48 49" fill="none" xmlns="http://www.w3.org/2000/svg">
<circle cx="26" cy="26.5654" r="21.25" fill="#FFF1F0" stroke="#E9004B" stroke-width="1.5"/>
<circle cx="10" cy="10.5654" r="10" fill="#E9004B"/>
<path d="M5.69005 13.189V11.533L9.48205 6.10902H11.7741V11.413H12.7581V13.189H11.7741V14.749H9.72205V13.189H5.69005ZM9.86605 8.36502L7.85005 11.413H9.86605V8.36502Z" fill="white"/>
<path d="M21.9106 20.9404C21.9106 20.5262 22.2464 20.1904 22.6606 20.1904H29.3395C29.7537 20.1904 30.0895 20.5262 30.0895 20.9404C30.0895 21.3546 29.7537 21.6904 29.3395 21.6904H22.6606C22.2464 21.6904 21.9106 21.3546 21.9106 20.9404Z" fill="#E9004B"/>
<path d="M22.6606 23.1904C22.2464 23.1904 21.9106 23.5262 21.9106 23.9404C21.9106 24.3546 22.2464 24.6904 22.6606 24.6904H29.3395C29.7537 24.6904 30.0895 24.3546 30.0895 23.9404C30.0895 23.5262 29.7537 23.1904 29.3395 23.1904H22.6606Z" fill="#E9004B"/>
<path fill-rule="evenodd" clip-rule="evenodd" d="M22 16.6592C20.4812 16.6592 19.25 17.8904 19.25 19.4092V21.9429C17.4196 22.1912 16.0088 23.7602 16.0088 25.6587V32.7981C16.0088 34.8691 17.6877 36.5481 19.7588 36.5481H32.2411C34.3122 36.5481 35.9911 34.8691 35.9911 32.7981V25.6587C35.9911 23.7602 34.5804 22.1912 32.75 21.9429V19.4092C32.75 17.8904 31.5188 16.6592 30 16.6592H22ZM32.75 23.4665V25.1616C32.8466 25.2003 32.9366 25.2597 33.0132 25.3399C33.2993 25.6394 33.2884 26.1142 32.9889 26.4003L27.8995 31.2614C26.8367 32.2766 25.1635 32.2766 24.1006 31.2614L19.0113 26.4003C18.7117 26.1142 18.7008 25.6394 18.9869 25.3399C19.0635 25.2598 19.1535 25.2003 19.25 25.1617V23.4665C18.2524 23.6971 17.5088 24.591 17.5088 25.6587V32.7981C17.5088 34.0407 18.5161 35.0481 19.7588 35.0481H32.2411C33.4838 35.0481 34.4911 34.0407 34.4911 32.7981V25.6587C34.4911 24.5911 33.7475 23.6971 32.75 23.4665ZM20.75 25.9867L25.1367 30.1767C25.6198 30.6382 26.3803 30.6382 26.8635 30.1767L31.25 25.9869V19.4092C31.25 18.7188 30.6904 18.1592 30 18.1592H22C21.3096 18.1592 20.75 18.7188 20.75 19.4092V25.9867Z" fill="#E9004B"/>
</svg>
