<svg width="48" height="49" viewBox="0 0 48 49" fill="none" xmlns="http://www.w3.org/2000/svg">
<circle cx="26" cy="26.5654" r="21.25" fill="#FFF1F0" stroke="#E9004B" stroke-width="1.5"/>
<circle cx="10" cy="10.5654" r="10" fill="#E9004B"/>
<path d="M6.968 13.105C7.24 12.889 7.364 12.789 7.34 12.805C8.124 12.157 8.74 11.625 9.188 11.209C9.644 10.793 10.028 10.357 10.34 9.90102C10.652 9.44502 10.808 9.00102 10.808 8.56902C10.808 8.24102 10.732 7.98502 10.58 7.80102C10.428 7.61702 10.2 7.52502 9.896 7.52502C9.592 7.52502 9.352 7.64102 9.176 7.87302C9.008 8.09702 8.924 8.41702 8.924 8.83302H6.944C6.96 8.15302 7.104 7.58502 7.376 7.12902C7.656 6.67302 8.02 6.33702 8.468 6.12102C8.924 5.90502 9.428 5.79702 9.98 5.79702C10.932 5.79702 11.648 6.04102 12.128 6.52902C12.616 7.01702 12.86 7.65302 12.86 8.43702C12.86 9.29302 12.568 10.089 11.984 10.825C11.4 11.553 10.656 12.265 9.752 12.961H12.992V14.629H6.968V13.105Z" fill="white"/>
<path fill-rule="evenodd" clip-rule="evenodd" d="M21.7993 21.5811C21.7993 19.6481 23.3663 18.0811 25.2993 18.0811C27.2323 18.0811 28.7993 19.6481 28.7993 21.5811C28.7993 23.5141 27.2323 25.0811 25.2993 25.0811C23.3663 25.0811 21.7993 23.5141 21.7993 21.5811ZM25.2993 16.5811C22.5378 16.5811 20.2993 18.8196 20.2993 21.5811C20.2993 24.3425 22.5378 26.5811 25.2993 26.5811C28.0607 26.5811 30.2993 24.3425 30.2993 21.5811C30.2993 18.8196 28.0607 16.5811 25.2993 16.5811ZM35.2496 28.9995C34.7061 28.456 34.0958 28.1581 33.4326 28.2262C32.8105 28.2902 32.3266 28.6618 31.9789 29.0095L31.4795 29.5089C31.4727 29.5155 31.4659 29.5222 31.4594 29.5291L28.4389 32.5495C28.2966 32.6919 28.1863 32.8642 28.1087 33.0175C28.0312 33.1709 27.959 33.3592 27.9284 33.5529L27.9283 33.5528L27.9266 33.5653L27.7368 34.9137L27.7367 34.9146C27.6738 35.3561 27.79 35.8112 28.1189 36.1401C28.4478 36.4691 28.9029 36.5852 29.3445 36.5224L29.3453 36.5223L30.6937 36.3325L30.6938 36.3326L30.7062 36.3306C30.8968 36.3005 31.0862 36.2298 31.2421 36.1519C31.3902 36.0779 31.5706 35.9662 31.7172 35.8126L34.6372 32.8926C34.7175 32.8387 34.7877 32.7692 34.8427 32.687L35.2496 32.2802C35.5972 31.9325 35.97 31.4476 36.0318 30.8224C36.0976 30.1576 35.7961 29.5461 35.2496 28.9995ZM29.5009 33.6089L31.7679 31.3419C32.0659 31.8014 32.4567 32.1936 32.9151 32.4933L30.6489 34.7595L30.6383 34.7703L30.6311 34.7756C30.6175 34.785 30.597 34.7974 30.5714 34.8102C30.5459 34.823 30.5208 34.8334 30.4994 34.8407L30.4858 34.8451C30.4789 34.8473 30.4743 34.8484 30.4722 34.8489L29.2362 35.0229L29.4101 33.7875C29.4108 33.7845 29.4129 33.7767 29.4172 33.7643C29.4241 33.7445 29.4342 33.7203 29.4472 33.6947C29.4602 33.669 29.4736 33.6466 29.4855 33.6294C29.494 33.6169 29.4995 33.6106 29.5007 33.6091L29.5009 33.6089ZM32.868 30.2417C33.1068 30.7463 33.511 31.1529 34.0138 31.3946L34.1889 31.2195C34.4513 30.9571 34.5285 30.7821 34.5391 30.6747C34.5458 30.607 34.5423 30.4136 34.1889 30.0601C33.8424 29.7136 33.6527 29.7115 33.5859 29.7184C33.478 29.7295 33.3019 29.8078 33.0396 30.0702L32.868 30.2417ZM17.5342 34.9334C18.0475 31.9929 21.2283 29.5498 25.2993 29.5498C26.2672 29.5498 27.1943 29.6894 28.053 29.948C28.4496 30.0674 28.868 29.8426 28.9874 29.446C29.1068 29.0494 28.8821 28.6311 28.4855 28.5116C27.4842 28.2102 26.4113 28.0498 25.2993 28.0498C20.7181 28.0498 16.7294 30.8211 16.0565 34.6755C15.866 35.767 16.7857 36.5498 17.7092 36.5498H26.0549C26.4692 36.5498 26.8049 36.214 26.8049 35.7998C26.8049 35.3856 26.4692 35.0498 26.0549 35.0498H17.7092C17.6362 35.0498 17.5818 35.0196 17.554 34.9903C17.5412 34.9768 17.5364 34.9661 17.5346 34.9606C17.5334 34.9566 17.5314 34.9492 17.5342 34.9334Z" fill="#E9004B"/>
</svg>
