<svg width="48" height="49" viewBox="0 0 48 49" fill="none" xmlns="http://www.w3.org/2000/svg">
<circle cx="26" cy="26.5654" r="21.25" fill="#FFF1F0" stroke="#E9004B" stroke-width="1.5"/>
<path fill-rule="evenodd" clip-rule="evenodd" d="M20 17.3207C18.7476 17.3207 17.75 18.3214 17.75 19.5406V30.4507C17.75 31.6699 18.7476 32.6706 20 32.6706H20.75C21.7327 32.6706 22.6944 33.0552 23.3987 33.7587L23.4003 33.7603L25.1069 35.4469L25.1071 35.4471L25.1072 35.4472C25.5951 35.9284 26.3949 35.9284 26.8828 35.4472L26.8829 35.4471L26.8831 35.4469L28.5897 33.7603L28.5913 33.7586C29.2948 33.0561 30.246 32.6706 31.24 32.6706H32C33.2507 32.6706 34.25 31.6615 34.25 30.4507V19.5406C34.25 18.3214 33.2524 17.3207 32 17.3207H20ZM16.25 19.5406C16.25 17.4799 17.9324 15.8207 20 15.8207H32C34.0676 15.8207 35.75 17.4799 35.75 19.5406V30.4507C35.75 32.4998 34.0693 34.1706 32 34.1706H31.24C30.6347 34.1706 30.0667 34.4045 29.6503 34.821L29.6472 34.8241L27.9372 36.5141L27.9369 36.5144C26.8648 37.5727 25.1252 37.5727 24.0531 36.5144L24.0528 36.5141L22.3428 34.8241L22.3397 34.821C21.9242 34.4055 21.3466 34.1706 20.75 34.1706H20C17.9324 34.1706 16.25 32.5114 16.25 30.4507V19.5406ZM26 20.6507C25.1274 20.6507 24.42 21.3581 24.42 22.2307C24.42 23.1033 25.1274 23.8107 26 23.8107C26.8726 23.8107 27.58 23.1033 27.58 22.2307C27.58 21.3581 26.8726 20.6507 26 20.6507ZM22.92 22.2307C22.92 20.5296 24.299 19.1507 26 19.1507C27.701 19.1507 29.08 20.5296 29.08 22.2307C29.08 23.9317 27.701 25.3107 26 25.3107C24.299 25.3107 22.92 23.9317 22.92 22.2307ZM26 25.8143C23.5263 25.8143 21.25 27.4741 21.25 29.8243C21.25 30.2385 21.5858 30.5743 22 30.5743H30C30.4142 30.5743 30.75 30.2385 30.75 29.8243C30.75 27.4741 28.4737 25.8143 26 25.8143ZM26 27.3143C27.5522 27.3143 28.6956 28.1158 29.0951 29.0743H22.9049C23.3044 28.1158 24.4478 27.3143 26 27.3143Z" fill="#E9004B"/>
<circle cx="10" cy="10.5654" r="10" fill="#E9004B"/>
<path d="M7.87478 7.8971V5.9891H11.1988V14.7491H9.06278V7.8971H7.87478Z" fill="white"/>
</svg>
