<svg width="683" height="683" viewBox="0 0 683 683" fill="none" xmlns="http://www.w3.org/2000/svg">
<g clip-path="url(#clip0_641_300)">
<mask id="mask0_641_300" style="mask-type:luminance" maskUnits="userSpaceOnUse" x="0" y="0" width="683" height="683">
<path d="M0 0.000366211H682.667V682.667H0V0.000366211Z" fill="white"/>
</mask>
<g mask="url(#mask0_641_300)">
<path d="M181.334 662.667V500H341.334V662.667" stroke="#E9004B" stroke-width="40" stroke-miterlimit="10" stroke-linecap="round" stroke-linejoin="round"/>
</g>
<path d="M261.334 540V500" stroke="#E9004B" stroke-width="40" stroke-miterlimit="10" stroke-linecap="round" stroke-linejoin="round"/>
<path d="M261.334 500V340H421.334V500" stroke="#E9004B" stroke-width="40" stroke-miterlimit="10" stroke-linecap="round" stroke-linejoin="round"/>
<path d="M341.334 380V340" stroke="#E9004B" stroke-width="40" stroke-miterlimit="10" stroke-linecap="round" stroke-linejoin="round"/>
<mask id="mask1_641_300" style="mask-type:luminance" maskUnits="userSpaceOnUse" x="0" y="0" width="683" height="683">
<path d="M0 0.000366211H682.667V682.667H0V0.000366211Z" fill="white"/>
</mask>
<g mask="url(#mask1_641_300)">
<path d="M341.334 500H501.334V662.667" stroke="#E9004B" stroke-width="40" stroke-miterlimit="10" stroke-linecap="round" stroke-linejoin="round"/>
</g>
<path d="M421.334 540V500" stroke="#E9004B" stroke-width="40" stroke-miterlimit="10" stroke-linecap="round" stroke-linejoin="round"/>
<path d="M582.667 180V260H100V180" stroke="#E9004B" stroke-width="40" stroke-miterlimit="10" stroke-linecap="round" stroke-linejoin="round"/>
<mask id="mask2_641_300" style="mask-type:luminance" maskUnits="userSpaceOnUse" x="0" y="0" width="683" height="683">
<path d="M0 0.000366211H682.667V682.667H0V0.000366211Z" fill="white"/>
</mask>
<g mask="url(#mask2_641_300)">
<path d="M100 260V662.667" stroke="#E9004B" stroke-width="40" stroke-miterlimit="10" stroke-linecap="round" stroke-linejoin="round"/>
<path d="M582.666 260V662.667" stroke="#E9004B" stroke-width="40" stroke-miterlimit="10" stroke-linecap="round" stroke-linejoin="round"/>
<path d="M502.667 20.0004L662.667 100V662.667H20V100L180 20.0004H502.667Z" stroke="#E9004B" stroke-width="40" stroke-miterlimit="10" stroke-linecap="round" stroke-linejoin="round"/>
</g>
<path d="M301.334 100H381.334" stroke="#E9004B" stroke-width="40" stroke-miterlimit="10" stroke-linecap="round" stroke-linejoin="round"/>
<mask id="mask3_641_300" style="mask-type:luminance" maskUnits="userSpaceOnUse" x="0" y="0" width="683" height="683">
<path d="M0 0.000366211H682.667V682.667H0V0.000366211Z" fill="white"/>
</mask>
<g mask="url(#mask3_641_300)">
<path d="M20 180H662.667" stroke="#E9004B" stroke-width="40" stroke-miterlimit="10" stroke-linecap="round" stroke-linejoin="round"/>
</g>
</g>
<defs>
<clipPath id="clip0_641_300">
<rect width="682.667" height="682.667" fill="white"/>
</clipPath>
</defs>
</svg>
