<svg width="512" height="512" viewBox="0 0 512 512" fill="none" xmlns="http://www.w3.org/2000/svg">
<g clip-path="url(#clip0_641_346)">
<path d="M135 420H105C96.716 420 90 426.716 90 435C90 443.284 96.716 450 105 450H135C143.284 450 150 443.284 150 435C150 426.716 143.284 420 135 420Z" fill="#E9004B"/>
<path d="M225 90C233.284 90 240 83.2843 240 75C240 66.7157 233.284 60 225 60C216.716 60 210 66.7157 210 75C210 83.2843 216.716 90 225 90Z" fill="#E9004B"/>
<path d="M497 270C492.522 270 347.096 270 337.232 270C343.477 260.651 348.53 250.572 352.27 240H360C393.084 240 420 213.084 420 180C420 146.916 393.084 120 360 120V105C360 47.103 312.897 0 255 0H195C137.103 0 90 47.103 90 105V120C56.916 120 30 146.916 30 180C30 213.084 56.916 240 90 240H97.722C108.494 270.377 129.844 295.787 157.328 311.776L152.986 328.755C67.234 339.883 72.648 339.043 70.558 339.771C28.355 354.466 0 394.365 0 439.053V497C0 505.284 6.716 512 15 512H255C266.491 512 458.64 512 467 512C475.284 512 482 505.284 482 497V360H497C505.284 360 512 353.284 512 345V285C512 276.716 505.284 270 497 270ZM360 195V150C376.542 150 390 163.458 390 180C390 196.542 376.542 210 360 210H359.163C359.718 205.045 360 200.037 360 195ZM60 180C60 163.458 73.458 150 90 150V195C90 200.07 90.291 205.073 90.838 210C72.339 210 60 195.718 60 180ZM390 300V376.972L368.32 362.519C363.281 359.16 356.718 359.161 351.679 362.519L330 376.972V300H390ZM120 105C120 63.645 153.645 30 195 30H255C296.355 30 330 63.645 330 105V120H120V105ZM320.729 150L309.875 171.708C307.317 176.823 302.176 180 296.458 180H153.541C147.823 180 142.682 176.823 140.124 171.708L129.271 150H320.729ZM120 195.01C128.398 204.445 140.46 210 153.541 210H296.459C309.54 210 321.601 204.446 330 195.01C329.997 223.274 318.574 250.3 298.482 270H225C216.716 270 210 276.716 210 285V298.924C159.187 291.623 120.005 247.81 120 195.01ZM240 482H30V439.053C30 407.612 49.642 379.488 79.029 368.603L131.028 361.855C148.73 397.372 184.948 420 225 420C230.049 420 235.055 419.622 240 418.914V482ZM240 388.49C235.092 389.485 230.078 390 225 390C200.021 390 177.131 377.677 163.304 357.667C166.053 357.31 176.731 356.991 179.532 346.037L185.167 324C193.155 326.472 201.46 328.214 210 329.162V345C210 353.284 216.716 360 225 360H240V388.49ZM240 330V300H300V330H240ZM452 482C441.653 482 279.954 482 270 482V360H300V405C300 416.969 313.375 424.109 323.32 417.481L360 393.028L396.68 417.481C406.595 424.092 420 417.016 420 405V360H452V482ZM482 330H420V300H482V330Z" fill="#E9004B"/>
</g>
<defs>
<clipPath id="clip0_641_346">
<rect width="512" height="512" fill="white"/>
</clipPath>
</defs>
</svg>
