<?xml version="1.0" encoding="UTF-8" standalone="no"?>
<!-- Created with Inkscape (http://www.inkscape.org/) -->

<svg
   version="1.1"
   id="svg231"
   xml:space="preserve"
   width="682.66669"
   height="682.66669"
   viewBox="0 0 682.66669 682.66669"
   xmlns="http://www.w3.org/2000/svg"
   xmlns:svg="http://www.w3.org/2000/svg"><defs
     id="defs235"><clipPath
       clipPathUnits="userSpaceOnUse"
       id="clipPath285"><path
         d="M 0,512 H 512 V 0 H 0 Z"
         id="path283" /></clipPath></defs><g
     id="g237"
     transform="matrix(1.3333333,0,0,-1.3333333,0,682.66667)"><g
       id="g239"
       transform="translate(177.0117,398.3632)"><path
         d="M 0,0 H -89.522"
         style="fill:none;stroke:#000000;stroke-width:30;stroke-linecap:round;stroke-linejoin:round;stroke-miterlimit:10;stroke-dasharray:none;stroke-opacity:1"
         id="path241" /></g><g
       id="g243"
       transform="translate(177.0117,338.3594)"><path
         d="M 0,0 H -89.522"
         style="fill:none;stroke:#000000;stroke-width:30;stroke-linecap:round;stroke-linejoin:round;stroke-miterlimit:10;stroke-dasharray:none;stroke-opacity:1"
         id="path245" /></g><g
       id="g247"
       transform="translate(177.0117,278.3557)"><path
         d="M 0,0 H -89.522"
         style="fill:none;stroke:#000000;stroke-width:30;stroke-linecap:round;stroke-linejoin:round;stroke-miterlimit:10;stroke-dasharray:none;stroke-opacity:1"
         id="path249" /></g><g
       id="g251"
       transform="translate(177.0117,218.3518)"><path
         d="M 0,0 H -89.522"
         style="fill:none;stroke:#000000;stroke-width:30;stroke-linecap:round;stroke-linejoin:round;stroke-miterlimit:10;stroke-dasharray:none;stroke-opacity:1"
         id="path253" /></g><g
       id="g255"
       transform="translate(177.0117,157.3423)"><path
         d="M 0,0 H -89.522"
         style="fill:none;stroke:#000000;stroke-width:30;stroke-linecap:round;stroke-linejoin:round;stroke-miterlimit:10;stroke-dasharray:none;stroke-opacity:1"
         id="path257" /></g><g
       id="g259"
       transform="translate(316.9121,398.3632)"><path
         d="M 0,0 H -89.521"
         style="fill:none;stroke:#000000;stroke-width:30;stroke-linecap:round;stroke-linejoin:round;stroke-miterlimit:10;stroke-dasharray:none;stroke-opacity:1"
         id="path261" /></g><g
       id="g263"
       transform="translate(316.9121,338.3594)"><path
         d="M 0,0 H -89.521"
         style="fill:none;stroke:#000000;stroke-width:30;stroke-linecap:round;stroke-linejoin:round;stroke-miterlimit:10;stroke-dasharray:none;stroke-opacity:1"
         id="path265" /></g><g
       id="g267"
       transform="translate(270.5059,278.3557)"><path
         d="M 0,0 H -43.115"
         style="fill:none;stroke:#000000;stroke-width:30;stroke-linecap:round;stroke-linejoin:round;stroke-miterlimit:10;stroke-dasharray:none;stroke-opacity:1"
         id="path269" /></g><g
       id="g271"
       transform="translate(408.7002,156)"><path
         d="M 0,0 -64.016,-62.678"
         style="fill:none;stroke:#000000;stroke-width:30;stroke-linecap:round;stroke-linejoin:round;stroke-miterlimit:10;stroke-dasharray:none;stroke-opacity:1"
         id="path273" /></g><g
       id="g275"
       transform="translate(344.6846,156)"><path
         d="M 0,0 64.016,-62.678"
         style="fill:none;stroke:#000000;stroke-width:30;stroke-linecap:round;stroke-linejoin:round;stroke-miterlimit:10;stroke-dasharray:none;stroke-opacity:1"
         id="path277" /></g><g
       id="g279"><g
         id="g281"
         clip-path="url(#clipPath285)"><g
           id="g287"
           transform="translate(378.6699,234.2966)"><path
             d="m 0,0 c -0.658,0.012 -1.316,0.025 -1.978,0.025 -60.516,0 -109.574,-49.097 -109.574,-109.661 0,-24.759 8.202,-47.6 22.031,-65.955 19.999,-26.544 51.767,-43.706 87.543,-43.706 60.517,0 109.576,49.097 109.576,109.661 C 107.598,-49.733 59.604,-1.056 0,0 Z"
             style="fill:none;stroke:#000000;stroke-width:30;stroke-linecap:round;stroke-linejoin:round;stroke-miterlimit:10;stroke-dasharray:none;stroke-opacity:1"
             id="path289" /></g><g
           id="g291"
           transform="translate(378.6699,234.2966)"><path
             d="m 0,0 v 217.292 c 0,25.08 -20.332,45.411 -45.412,45.411 h -262.113 c -25.08,0 -45.412,-20.331 -45.412,-45.411 v -347.471 c 0,-25.081 20.332,-45.412 45.412,-45.412 h 218.004"
             style="fill:none;stroke:#000000;stroke-width:30;stroke-linecap:round;stroke-linejoin:round;stroke-miterlimit:10;stroke-dasharray:none;stroke-opacity:1"
             id="path293" /></g></g></g></g></svg>
