<svg width="512" height="512" viewBox="0 0 512 512" fill="none" xmlns="http://www.w3.org/2000/svg">
<path d="M508.065 273.533L436.576 190.15C433.471 186.529 428.94 184.445 424.169 184.445L369.021 184.449V176.966C369.021 167.942 361.706 160.627 352.682 160.626L227.549 160.616C224.167 136.984 213.405 114.216 195.264 96.0752C173.66 74.4712 144.936 62.5732 114.383 62.5732C83.83 62.5732 55.105 74.4712 33.502 96.0752C11.898 117.679 0 146.403 0 176.955C0 207.508 11.898 236.233 33.502 257.836C51.204 275.539 73.69 286.719 98.042 290.181V391.385C98.042 400.409 105.358 407.725 114.382 407.725H183.804C190.879 431.797 213.157 449.427 239.489 449.427C265.821 449.427 288.099 431.797 295.174 407.725H338.697C345.772 431.797 368.05 449.427 394.382 449.427C420.714 449.427 442.992 431.797 450.067 407.725H495.659C504.683 407.725 511.999 400.409 511.999 391.385V284.168C512 280.267 510.604 276.495 508.065 273.533ZM56.611 234.727C41.179 219.296 32.681 198.779 32.681 176.955C32.681 155.132 41.179 134.614 56.611 119.183C72.042 103.751 92.56 95.2532 114.383 95.2532C136.206 95.2532 156.723 103.751 172.155 119.183C204.01 151.039 204.01 202.872 172.155 234.727C156.723 250.159 136.206 258.657 114.383 258.657C92.56 258.657 72.042 250.159 56.611 234.727ZM183.805 375.045H130.724V342.364H208.471C196.715 349.831 187.817 361.397 183.805 375.045ZM239.49 416.747C225.506 416.747 214.129 405.371 214.129 391.388C214.129 377.403 225.506 366.024 239.49 366.024C253.474 366.024 264.851 377.402 264.851 391.388C264.851 405.372 253.474 416.747 239.49 416.747ZM336.339 375.045H295.174C291.161 361.397 282.264 349.831 270.508 342.364H336.339V375.045ZM336.34 309.683H130.723V290.181C155.076 286.718 177.56 275.539 195.263 257.836C213.403 239.696 224.164 216.927 227.547 193.297L336.339 193.306V309.683H336.34ZM419.744 391.401C419.737 405.379 408.362 416.747 394.383 416.747C380.399 416.747 369.022 405.371 369.022 391.388C369.022 377.403 380.399 366.024 394.383 366.024C408.362 366.024 419.736 377.395 419.744 391.372C419.744 391.376 419.743 391.381 419.743 391.385C419.743 391.39 419.744 391.395 419.744 391.401ZM479.319 375.045H450.067C442.991 350.973 420.713 333.343 394.382 333.343C385.292 333.343 376.686 335.449 369.02 339.189V326.039C369.02 326.034 369.021 326.029 369.021 326.024C369.021 326.019 369.02 326.014 369.02 326.009L369.021 217.131L416.657 217.127L479.319 290.216V375.045Z" fill="#E9004B"/>
<path d="M139.438 168.24H123.098V141.006C123.098 131.982 115.782 124.666 106.758 124.666C97.734 124.666 90.418 131.982 90.418 141.006V184.58C90.418 193.604 97.734 200.92 106.758 200.92H139.439C148.463 200.92 155.779 193.605 155.779 184.58C155.779 175.557 148.463 168.24 139.438 168.24Z" fill="#E9004B"/>
</svg>
