<svg width="20" height="23" viewBox="0 0 20 23" fill="none" xmlns="http://www.w3.org/2000/svg">
<path fill-rule="evenodd" clip-rule="evenodd" d="M4 2.32065C2.74764 2.32065 1.75 3.32138 1.75 4.54062V15.4507C1.75 16.6699 2.74764 17.6706 4 17.6706H4.75C5.73267 17.6706 6.69438 18.0552 7.39874 18.7587L7.40033 18.7603L9.10692 20.4469L9.10713 20.4471L9.10722 20.4472C9.59505 20.9284 10.3949 20.9284 10.8828 20.4472L10.8829 20.4471L10.8831 20.4469L12.5897 18.7603L12.5913 18.7586C13.2948 18.0561 14.246 17.6706 15.24 17.6706H16C17.2507 17.6706 18.25 16.6615 18.25 15.4507V4.54062C18.25 3.32138 17.2524 2.32065 16 2.32065H4ZM0.25 4.54062C0.25 2.47987 1.93236 0.82065 4 0.82065H16C18.0676 0.82065 19.75 2.47987 19.75 4.54062V15.4507C19.75 17.4998 18.0693 19.1706 16 19.1706H15.24C14.6347 19.1706 14.0667 19.4045 13.6503 19.821L13.6472 19.8241L11.9372 21.5141L11.9369 21.5144C10.8648 22.5727 9.12521 22.5727 8.05312 21.5144L8.05282 21.5141L6.3428 19.8241L6.33967 19.821C5.92416 19.4055 5.34659 19.1706 4.75 19.1706H4C1.93236 19.1706 0.25 17.5114 0.25 15.4507V4.54062ZM10 5.65073C9.12737 5.65073 8.41998 6.3581 8.41998 7.23069C8.41998 8.1033 9.12739 8.8107 10 8.8107C10.8726 8.8107 11.58 8.1033 11.58 7.23069C11.58 6.3581 10.8726 5.65073 10 5.65073ZM6.91998 7.23069C6.91998 5.52962 8.29899 4.15073 10 4.15073C11.701 4.15073 13.08 5.52962 13.08 7.23069C13.08 8.93172 11.701 10.3107 10 10.3107C8.29896 10.3107 6.91998 8.93172 6.91998 7.23069ZM10 10.8143C7.52631 10.8143 5.25 12.4741 5.25 14.8243C5.25 15.2385 5.58579 15.5743 6 15.5743H14C14.4142 15.5743 14.75 15.2385 14.75 14.8243C14.75 12.4741 12.4737 10.8143 10 10.8143ZM10 12.3143C11.5522 12.3143 12.6956 13.1158 13.0951 14.0743H6.9049C7.30436 13.1158 8.44783 12.3143 10 12.3143Z" fill="#E9004B"/>
</svg>
